<svg width="54" height="54" viewBox="0 0 54 54" fill="none" xmlns="http://www.w3.org/2000/svg">
<path d="M39 -1.70474e-06L54 14L54 54L0 54L-2.36041e-06 0L39 -1.70474e-06ZM9 46L39 46L39 39L21.6572 39L45.3555 15.3018L39.6982 9.64453L16 33.3428L16 16L9 16L9 46Z" fill="url(#paint0_linear_17_176)"/>
<path d="M39 -1.70474e-06L54 14L54 54L0 54L-2.36041e-06 0L39 -1.70474e-06ZM9 46L39 46L39 39L21.6572 39L45.3555 15.3018L39.6982 9.64453L16 33.3428L16 16L9 16L9 46Z" fill="#DAD1C8"/>
<defs>
<linearGradient id="paint0_linear_17_176" x1="1.85405" y1="54" x2="52.1459" y2="-3.35585e-06" gradientUnits="userSpaceOnUse">
<stop stop-color="#F54900"/>
<stop offset="0.5" stop-color="#7CCF00"/>
<stop offset="0.879808" stop-color="#007A55"/>
</linearGradient>
</defs>
</svg>
